<?xml version="1.0" encoding="UTF-8"?>
<svg xmlns="http://www.w3.org/2000/svg" xmlns:xlink="http://www.w3.org/1999/xlink" width="3840" height="2160" viewBox="0 0 3840 2160">

<path fill="none" stroke-width="30" stroke-linecap="round" stroke-linejoin="round" stroke="rgb(74.21875%, 74.21875%, 74.21875%)" stroke-opacity="1" stroke-miterlimit="10" d="M -377.929688 17302.304688 C 113.75 16773.515625 405.546875 16075 1054.0625 15708.90625 C 2106.992188 15114.296875 3535.703125 15298.90625 4698.476562 15240.390625 C 7388.085938 15104.804688 11394.609375 14144.804688 12653.398438 11438.789062 C 13731.601562 9120.976562 10371.40625 6173.125 10225.898438 3752.460938 C 10170 2823.554688 10327.382812 2029.609375 10447.8125 1123.242188 C 10494.21875 774.453125 10500 319.609375 10621.289062 -14.335938 C 10757.382812 -389.296875 11283.28125 -545.078125 11633.28125 -573.085938 C 11759.492188 -583.164062 11888.90625 -579.375 12015.507812 -581.171875 C 12074.21875 -582.03125 12203.398438 -640.703125 12191.601562 -583.164062 C 11959.492188 555.898438 11193.398438 1499.140625 11164.609375 2704.023438 C 11120.507812 4549.492188 12266.484375 5807.890625 13017.1875 7369.296875 C 14116.992188 9657.03125 13326.601562 11662.5 16778.984375 11937.617188 C 20977.109375 12272.109375 20795.898438 8580.3125 24485 8096.367188 C 26781.484375 7795.117188 28537.304688 8991.09375 30546.71875 9898.945312 C 31370.195312 10271.09375 32278.085938 10505.78125 33168.515625 10642.890625 C 34254.414062 10810.117188 35354.296875 10870.3125 36452.1875 10857.382812 C 36994.492188 10851.015625 38071.289062 10551.992188 38526.71875 10596.484375 C 38830.898438 10626.289062 39137.1875 11308.203125 39154.414062 11572.5 C 39155.78125 11593.515625 39022.695312 11619.101562 39000.390625 11621.601562 C 38550.898438 11672.109375 38091.40625 11608.085938 37641.796875 11584.804688 C 37606.914062 11583.007812 37571.992188 11581.210938 37536.992188 11580 C 36856.796875 11557.890625 36174.6875 11728.59375 35502.890625 11817.617188 C 34286.914062 11978.789062 32933.710938 12061.914062 31744.21875 11713.007812 C 29840.78125 11154.6875 26016.09375 8910.429688 24080.117188 9598.828125 C 22631.289062 10113.90625 21740.117188 11482.1875 20402.890625 12167.382812 C 19514.882812 12622.304688 17947.304688 12434.296875 17403.203125 13317.382812 C 16211.914062 15250.898438 22548.203125 15647.890625 23013.789062 15730.117188 C 25552.890625 16178.398438 26597.617188 16370.507812 28297.5 18387.304688 C 28891.40625 19091.992188 29295.703125 19925.585938 29917.695312 20619.609375 C 30433.515625 21195.117188 31121.210938 21511.484375 31805 21841.289062 C 32122.5 21994.492188 32448.085938 22118.085938 32772.304688 22254.882812 C 32788.398438 22261.71875 32914.609375 22318.710938 32908.28125 22333.90625 C 32862.890625 22445 32406.71875 22497.8125 32348.085938 22507.382812 C 30400.585938 22823.984375 29622.695312 21730.78125 28382.1875 20434.882812 C 27415.390625 19425.117188 26663.085938 17996.992188 25397.8125 17310.898438 C 24166.015625 16642.890625 22661.015625 16881.796875 21326.992188 16771.40625 C 20031.914062 16664.21875 18528.398438 16296.992188 17339.882812 15747.695312 C 15607.890625 14947.109375 16338.007812 12797.1875 14563.28125 12481.796875 C 12568.203125 12127.1875 12329.296875 13411.71875 11131.09375 14458.710938 C 10799.101562 14748.90625 10395 14949.296875 9988.359375 15111.992188 C 9647.382812 15248.398438 9294.609375 15363.789062 8928.671875 15411.484375 C 8301.757812 15493.203125 5907.929688 15405 5930.351562 16289.101562 C 5963.632812 17599.414062 7615.898438 18020.585938 8554.648438 18488.515625 C 9260.078125 18840 9902.148438 19318.203125 10448.710938 19885.703125 C 11092.109375 20553.90625 11889.609375 21673.007812 11499.21875 22651.09375 C 11494.882812 22661.71875 11439.414062 22871.992188 11367.1875 22874.492188 C 9879.6875 22926.09375 10960.117188 21681.289062 9849.335938 20692.1875 C 9008.28125 19943.28125 7857.890625 19594.21875 6915.117188 18987.382812 C 6479.609375 18707.109375 5943.75 18361.09375 5658.007812 17912.890625 C 5434.6875 17562.617188 5404.296875 17176.015625 5032.890625 16926.40625 C 4038.007812 16257.695312 946.914062 16604.609375 125.195312 17460.117188 C -100.195312 17694.804688 -222.578125 17973.90625 -335.351562 18274.414062 " transform="matrix(0.1, 0, 0, -0.1, 0, 2160)"/>
<path fill="none" stroke-width="30" stroke-linecap="round" stroke-linejoin="round" stroke="rgb(74.21875%, 74.21875%, 74.21875%)" stroke-opacity="1" stroke-miterlimit="10" d="M 9424.765625 22063.59375 C 9646.992188 20267.695312 7418.046875 19962.890625 6197.03125 19340.585938 C 5795.703125 19136.015625 5178.554688 18830.585938 4931.757812 18430.78125 C 4736.367188 18114.414062 4703.90625 17500.585938 4345.820312 17303.007812 C 3432.773438 16798.984375 267.65625 16933.984375 -263.515625 18029.414062 C -822.34375 19181.914062 1467.929688 17854.414062 1538.632812 17833.085938 C 1891.210938 17727.1875 2324.882812 17667.617188 2680.234375 17761.40625 C 3375.15625 17944.804688 3533.867188 19013.984375 3927.578125 19482.304688 C 4956.601562 20706.09375 6914.492188 20532.304688 7501.71875 22226.796875 " transform="matrix(0.1, 0, 0, -0.1, 0, 2160)"/>
<path fill="none" stroke-width="30" stroke-linecap="round" stroke-linejoin="round" stroke="rgb(74.21875%, 74.21875%, 74.21875%)" stroke-opacity="1" stroke-miterlimit="10" d="M 7044.101562 22553.789062 C 6758.125 22074.101562 6523.867188 21597.1875 6073.398438 21245 C 5292.265625 20634.21875 4107.265625 20779.882812 3350.742188 20079.414062 C 2893.710938 19656.289062 2875.585938 18816.992188 2210.976562 18594.609375 C 2130.664062 18567.695312 88.515625 18850.703125 -72.5 19044.414062 C -176.328125 19169.414062 -187.03125 19276.015625 -188.085938 19438.203125 C -195.46875 20554.6875 1348.515625 19598.59375 1900.859375 19559.609375 C 1972.5 19554.492188 2050.703125 19534.296875 2116.289062 19563.59375 C 2631.875 19793.59375 2550.3125 20514.296875 3088.789062 20738.59375 C 3630.625 20964.414062 4135.3125 21078.789062 4324.6875 21698.710938 C 4332.617188 21724.804688 4219.492188 22728.984375 4201.679688 22756.601562 " transform="matrix(0.1, 0, 0, -0.1, 0, 2160)"/>
<path fill="none" stroke-width="30" stroke-linecap="round" stroke-linejoin="round" stroke="rgb(74.21875%, 74.21875%, 74.21875%)" stroke-opacity="1" stroke-miterlimit="10" d="M 3902.539062 22275.3125 C 3713.359375 21820 3486.523438 21201.09375 3349.609375 21096.210938 C 2992.5 20822.695312 2570.15625 20884.882812 2186.132812 20705.390625 C 1835.625 20541.484375 1661.015625 20191.40625 1283.007812 20089.609375 C 1049.53125 20026.71875 776.601562 20151.289062 553.828125 20207.617188 C 52.617188 20334.21875 -488.789062 20352.109375 -464.023438 21048.710938 C -460.585938 21145.390625 -447.382812 21423.59375 -317.8125 21430.390625 C 182.929688 21456.796875 559.257812 20970.585938 1065.117188 21108.398438 C 1320.15625 21177.890625 1489.21875 21421.796875 1731.914062 21490.78125 C 2020.429688 21572.8125 2291.171875 21534.6875 2556.757812 21700.78125 " transform="matrix(0.1, 0, 0, -0.1, 0, 2160)"/>
<path fill="none" stroke-width="30" stroke-linecap="round" stroke-linejoin="round" stroke="rgb(74.21875%, 74.21875%, 74.21875%)" stroke-opacity="1" stroke-miterlimit="10" d="M 11770.390625 21888.59375 C 11653.398438 19503.59375 10062.8125 18660.507812 8066.5625 17907.8125 C 7555.234375 17715 5782.1875 17300.507812 6184.726562 16395.78125 C 6508.359375 15668.398438 9578.554688 16107.617188 10426.40625 15754.296875 C 11838.90625 15165.703125 11781.015625 12963.085938 13871.484375 13051.914062 C 15247.8125 13110.390625 15803.007812 14606.210938 16561.210938 15529.6875 C 16891.484375 15931.914062 17366.289062 16244.101562 17813.007812 16497.8125 C 19446.71875 17425.703125 21349.6875 17290.390625 23149.6875 17445.78125 C 23793.59375 17501.40625 24440.117188 17697.617188 25056.796875 17881.601562 C 25418.984375 17989.609375 25818.007812 18098.007812 26125.507812 18328.710938 C 26872.1875 18888.789062 27387.304688 19722.890625 27907.695312 20480.585938 C 28274.804688 21015 28535.585938 21636.796875 28992.109375 22103.28125 C 29029.101562 22141.09375 29389.804688 22383.085938 29383.398438 22482.890625 C 29354.6875 22929.882812 27348.710938 22412.382812 27052.1875 22288.28125 C 25601.09375 21681.09375 25548.28125 20285.117188 24465.703125 19309.882812 C 22565.117188 17597.890625 19356.992188 18613.085938 17069.492188 17269.21875 C 15988.59375 16634.101562 15508.007812 14684.21875 13940.78125 14908.90625 C 12760.585938 15078.28125 13829.609375 16949.296875 13071.09375 17288.398438 C 12203.085938 17676.40625 11053.710938 17283.007812 10184.414062 17081.015625 C 9452.03125 16910.78125 8710.898438 16619.21875 7953.242188 16597.617188 C 7838.320312 16594.296875 7636.054688 16678.59375 7671.835938 16818.515625 C 7801.445312 17324.882812 9458.59375 17545.898438 9891.015625 17661.289062 C 11711.796875 18147.382812 14013.90625 19663.984375 13177.109375 21914.882812 " transform="matrix(0.1, 0, 0, -0.1, 0, 2160)"/>
<path fill="none" stroke-width="30" stroke-linecap="round" stroke-linejoin="round" stroke="rgb(74.21875%, 74.21875%, 74.21875%)" stroke-opacity="1" stroke-miterlimit="10" d="M 13800.898438 21853.59375 C 13833.710938 21076.289062 14001.015625 20106.992188 13643.90625 19371.992188 C 13475.507812 19025.3125 13231.914062 18789.609375 12887.890625 18631.914062 C 12795.3125 18589.492188 12579.414062 18570.117188 12623.710938 18478.515625 C 12853.28125 18004.414062 13678.007812 18494.492188 13951.992188 18045.117188 C 14162.109375 17700.390625 14081.40625 16490.117188 14237.695312 16442.695312 C 15455 16073.085938 16324.414062 18386.601562 17534.492188 19015.585938 C 19231.71875 19897.890625 21641.484375 18049.21875 22938.085938 19370.507812 C 23456.601562 19898.984375 23833.203125 20668.398438 24222.695312 21286.289062 C 24463.515625 21668.398438 25060.703125 22619.492188 25047.1875 22640.507812 C 24946.914062 22796.210938 24566.289062 22794.296875 24408.789062 22791.40625 C 22648.59375 22759.414062 23544.882812 21361.484375 21975.117188 20587.617188 C 20305.78125 19764.609375 18546.210938 21750.78125 17578.28125 21418.710938 C 16766.601562 21140.117188 16632.382812 19492.109375 15744.414062 18888.90625 C 15533.398438 18745.585938 15280 18688.398438 15025.898438 18720 C 14418.085938 18795.507812 14556.601562 19198.28125 14564.296875 19683.007812 C 14566.992188 19852.695312 14514.101562 20056.210938 14576.914062 20220 C 14903.90625 21073.789062 16066.40625 21588.085938 16593.90625 22288.28125 " transform="matrix(0.1, 0, 0, -0.1, 0, 2160)"/>
<path fill="none" stroke-width="30" stroke-linecap="round" stroke-linejoin="round" stroke="rgb(74.21875%, 74.21875%, 74.21875%)" stroke-opacity="1" stroke-miterlimit="10" d="M 17056.914062 21713.515625 C 16463.28125 21491.015625 14784.6875 20369.882812 15001.484375 19567.109375 C 15029.101562 19465.117188 15139.21875 19406.09375 15238.203125 19407.617188 C 16268.515625 19422.890625 16655.898438 21605.507812 17584.6875 21994.609375 C 19172.382812 22659.804688 20079.609375 20787.695312 20981.992188 20966.40625 C 21758.203125 21120.195312 21977.890625 22002.890625 22689.101562 22291.015625 " transform="matrix(0.1, 0, 0, -0.1, 0, 2160)"/>
<path fill="none" stroke-width="30" stroke-linecap="round" stroke-linejoin="round" stroke="rgb(74.21875%, 74.21875%, 74.21875%)" stroke-opacity="1" stroke-miterlimit="10" d="M 34001.484375 21888.59375 C 30878.984375 21763.203125 29824.296875 18486.601562 27768.28125 16671.601562 C 25716.914062 14860.703125 22915.390625 15214.609375 20414.414062 14869.882812 C 20085.3125 14824.492188 18316.71875 14514.414062 18583.984375 13959.414062 C 19005.3125 13084.804688 20756.015625 13633.984375 21531.210938 13322.382812 C 21993.984375 13136.289062 22172.617188 12708.710938 22455.585938 12327.1875 C 22893.085938 11737.617188 23545.585938 11434.6875 24246.289062 11277.304688 C 26791.015625 10705.585938 28196.914062 12063.710938 30208.203125 13273.710938 C 30644.609375 13536.289062 31147.890625 13852.382812 31664.414062 13927.1875 C 33618.710938 14210.3125 35213.203125 12712.8125 37054.414062 12372.695312 C 37360.117188 12316.289062 38705.507812 12286.015625 38733.398438 12363.007812 C 38778.007812 12486.484375 38956.40625 13414.414062 38886.601562 13489.6875 C 38751.992188 13635.117188 38306.914062 13449.882812 38148.007812 13403.085938 C 37218.984375 13129.296875 36070.3125 13111.289062 35165.898438 13480.898438 C 33901.289062 13997.695312 32568.085938 15010.898438 31128.085938 14828.203125 C 28895.585938 14544.804688 27446.71875 12226.71875 25107.5 12227.5 C 24005.507812 12227.890625 24014.101562 12941.992188 23179.609375 13239.609375 C 22774.492188 13383.984375 21164.6875 13382.8125 21013.398438 13734.6875 C 20786.015625 14263.515625 22456.601562 14141.914062 22553.90625 14137.382812 C 24264.296875 14058.59375 26238.398438 14118.085938 27807.617188 14887.5 C 29193.515625 15567.109375 29515.195312 17034.609375 30422.695312 18157.1875 C 32328.90625 20515.117188 33673.710938 21385.585938 36838.984375 21675.3125 " transform="matrix(0.1, 0, 0, -0.1, 0, 2160)"/>
<path fill="none" stroke-width="30" stroke-linecap="round" stroke-linejoin="round" stroke="rgb(74.21875%, 74.21875%, 74.21875%)" stroke-opacity="1" stroke-miterlimit="10" d="M 38898.90625 20894.492188 L 38902.8125 21853.59375 C 36405.898438 21151.09375 33432.304688 20623.28125 31509.296875 18707.695312 C 30559.804688 17761.796875 30014.414062 16025.390625 29140 15333.984375 C 27878.28125 14336.210938 26434.609375 14218.59375 24923.59375 13859.296875 C 24694.804688 13804.882812 23576.289062 13674.804688 23944.804688 13179.609375 C 24364.492188 12615.507812 25410.3125 13046.601562 25884.101562 13272.8125 C 27703.984375 14141.71875 29479.609375 14928.59375 31426.484375 15472.890625 C 32318.398438 15722.304688 33113.203125 15948.59375 34012.109375 15629.492188 C 34578.789062 15428.398438 35338.515625 14834.492188 35822.304688 14499.6875 C 36756.210938 13853.59375 37870.585938 14423.90625 38872.695312 14577.8125 L 38877.304688 15681.484375 C 37912.617188 15399.609375 36716.914062 15083.398438 36168.515625 15323.398438 C 35524.101562 15605.507812 36387.617188 16791.210938 34703.007812 16915.195312 C 34058.984375 16962.695312 31800.117188 16524.6875 31658.203125 17331.914062 C 31492.695312 18273.007812 32607.1875 18785.195312 33308.90625 19062.1875 C 35108.28125 19772.5 36973.90625 20577.382812 38898.90625 20894.492188 Z M 38898.90625 20894.492188 " transform="matrix(0.1, 0, 0, -0.1, 0, 2160)"/>
<path fill="none" stroke-width="30" stroke-linecap="round" stroke-linejoin="round" stroke="rgb(74.21875%, 74.21875%, 74.21875%)" stroke-opacity="1" stroke-miterlimit="10" d="M 38692.8125 19858.007812 C 38245.585938 19760.898438 33170 18691.09375 33489.492188 17877.890625 C 33859.296875 16936.40625 35537.617188 17664.492188 36216.992188 17462.8125 C 37293.59375 17143.203125 36202.382812 15839.414062 37327.695312 15847.617188 C 37613.90625 15849.609375 37902.5 15913.085938 38179.414062 15978.28125 C 38402.695312 16030.898438 38894.882812 16066.484375 39061.796875 16269.21875 C 39996.289062 17404.609375 37671.71875 16654.492188 37583.90625 16743.398438 C 37304.296875 17026.40625 37937.890625 17568.59375 37885 17898.710938 C 37817.695312 18318.398438 37303.398438 18248.710938 37018.28125 18374.296875 C 37000.703125 18382.109375 36995.703125 18403.90625 37000.195312 18423.28125 C 37115 18919.804688 37630.390625 19032.695312 38071.71875 19105.898438 C 38389.296875 19158.59375 38532.5 19145.3125 38838.28125 19195.195312 " transform="matrix(0.1, 0, 0, -0.1, 0, 2160)"/>
<path fill="none" stroke-width="30" stroke-linecap="round" stroke-linejoin="round" stroke="rgb(74.21875%, 74.21875%, 74.21875%)" stroke-opacity="1" stroke-miterlimit="10" d="M 38692.8125 9810.273438 C 35347.5 10411.992188 31565 10098.90625 28459.609375 8669.804688 C 27727.617188 8332.929688 26126.601562 7564.21875 25846.992188 6830 C 25539.609375 6022.96875 26111.992188 5714.414062 26337.5 5012.148438 C 26583.007812 4247.578125 26643.90625 3432.890625 26339.101562 2677.578125 C 25835.3125 1429.140625 24759.21875 802.226562 23779.804688 -30.820312 C 23755.390625 -51.5625 23279.6875 -409.570312 23282.8125 -416.875 C 23306.015625 -472.148438 23626.484375 -507.695312 23679.882812 -515.46875 C 25059.296875 -715.898438 26325.3125 839.492188 26826.210938 1970.546875 C 27118.59375 2630.703125 27208.710938 3352.109375 27138.28125 4070.039062 C 27068.203125 4784.882812 26240.898438 5941.601562 26807.617188 6585.9375 C 28287.890625 8269.023438 35015.703125 9501.054688 37004.101562 8697.421875 C 37724.414062 8406.328125 38129.21875 7776.210938 38534.21875 7151.875 " transform="matrix(0.1, 0, 0, -0.1, 0, 2160)"/>
<path fill="none" stroke-width="30" stroke-linecap="round" stroke-linejoin="round" stroke="rgb(74.21875%, 74.21875%, 74.21875%)" stroke-opacity="1" stroke-miterlimit="10" d="M 26614.492188 -797.65625 C 27198.789062 690.585938 29764.804688 1490.3125 29807.1875 3159.375 C 29841.40625 4505.039062 26056.40625 4633.476562 27961.015625 6259.179688 C 29017.617188 7161.09375 34353.085938 8474.609375 35797.890625 7979.960938 C 36640.117188 7691.679688 37237.109375 7088.515625 37817.382812 6447.226562 C 38275 5941.523438 38708.398438 5373.203125 38634.296875 4663.671875 C 38625.585938 4579.609375 38569.296875 3986.367188 38477.890625 3962.617188 C 38372.1875 3935.15625 37008.007812 5533.789062 36623.984375 5817.695312 C 35328.085938 6775.703125 34008.398438 6790.117188 32487.890625 6461.679688 C 32141.71875 6386.875 31802.5 6285.820312 31464.21875 6181.328125 C 31106.484375 6070.820312 30787.5 5927.539062 30471.210938 5727.539062 C 28981.210938 4785.234375 33237.890625 4436.328125 32270.390625 3005.703125 C 31771.289062 2267.734375 28387.109375 382.148438 28466.015625 -204.296875 C 28527.109375 -658.164062 29117.5 -633.085938 29682.382812 -499.609375 " transform="matrix(0.1, 0, 0, -0.1, 0, 2160)"/>
<path fill="none" stroke-width="30" stroke-linecap="round" stroke-linejoin="round" stroke="rgb(74.21875%, 74.21875%, 74.21875%)" stroke-opacity="1" stroke-miterlimit="10" d="M 29682.382812 -499.609375 C 30139.882812 -391.484375 30580.78125 -212.265625 30710 -158.867188 C 31512.109375 172.617188 33515.390625 2031.875 34017.695312 2726.523438 C 35053.28125 4158.75 31806.210938 4384.492188 32497.304688 5174.53125 C 32722.8125 5432.265625 33057.695312 5585.976562 33385.195312 5661.835938 C 33880.195312 5776.5625 34562.109375 5872.304688 35056.289062 5740.742188 C 35880 5521.445312 37025.390625 4332.421875 37441.992188 3576.328125 C 37653.007812 3193.359375 37743.398438 2766.835938 37840.3125 2345.078125 C 37938.984375 1915.703125 38501.914062 -337.890625 38261.40625 -439.765625 C 38125.78125 -497.1875 37054.21875 -889.726562 36872.304688 -755.507812 C 36731.40625 -651.601562 36636.289062 -459.53125 36610.585938 -288.984375 C 36561.40625 37.734375 36682.695312 380.429688 36701.289062 708.90625 C 36744.296875 1470.195312 36711.210938 2326.71875 36511.601562 3064.140625 C 36320.3125 3771.132812 35843.90625 4331.71875 35113.007812 4473.046875 C 35059.609375 4483.359375 34916.914062 4538.125 34885.507812 4494.960938 C 34510 3978.476562 36031.015625 2616.445312 34741.601562 1366.484375 C 34203.28125 844.570312 33383.515625 487.578125 32993.398438 -158.007812 " transform="matrix(0.1, 0, 0, -0.1, 0, 2160)"/>
<path fill="none" stroke-width="30" stroke-linecap="round" stroke-linejoin="round" stroke="rgb(74.21875%, 74.21875%, 74.21875%)" stroke-opacity="1" stroke-miterlimit="10" d="M 33966.484375 -517.578125 C 34758.515625 81.679688 35246.601562 597.578125 35491.09375 1565.742188 C 35570.585938 1880.3125 35620.898438 2283.59375 35860.195312 2527.382812 C 35915.78125 2583.984375 36011.40625 2400.703125 36020.195312 2379.335938 C 36121.015625 2133.359375 36003.085938 1725.585938 35926.601562 1464.726562 C 35723.515625 771.796875 35495.585938 -53.828125 35058.710938 -636.5625 " transform="matrix(0.1, 0, 0, -0.1, 0, 2160)"/>
<path fill="none" stroke-width="30" stroke-linecap="round" stroke-linejoin="round" stroke="rgb(74.21875%, 74.21875%, 74.21875%)" stroke-opacity="1" stroke-miterlimit="10" d="M 13976.015625 -377.539062 C 13586.09375 75.078125 13309.296875 594.6875 12986.71875 1095.429688 C 11814.609375 2914.882812 11512.8125 3984.609375 13055.3125 5550.742188 C 13444.414062 5945.820312 13972.109375 6359.492188 14159.609375 6903.828125 C 14660.703125 8358.085938 13820.117188 9354.921875 15346.71875 10410.390625 C 15757.617188 10694.492188 16289.492188 10853.90625 16781.015625 10906.289062 C 19537.8125 11200.195312 19695.703125 9029.257812 21784.101562 8159.726562 C 23071.796875 7623.59375 24570.117188 8172.460938 25494.6875 6860.976562 C 25985.703125 6164.492188 25634.6875 5505.390625 25665.3125 4767.734375 C 25683.398438 4332.03125 25889.609375 3951.992188 25844.609375 3507.03125 C 25812.109375 3186.71875 25663.398438 2881.5625 25495.78125 2611.054688 C 24976.992188 1773.75 24041.914062 1230.3125 23299.609375 622.5 C 22470.3125 -56.601562 21748.515625 -1525.976562 20601.71875 -400 C 20166.71875 27.070312 21333.085938 1032.460938 21606.40625 1306.445312 C 22157.890625 1859.53125 23751.601562 2733.90625 23887.109375 3626.015625 C 23939.882812 3973.007812 23716.992188 4291.054688 23742.109375 4630.15625 C 23766.09375 4955.273438 24086.914062 5354.023438 24022.617188 5680.664062 C 23784.414062 6890 21878.203125 6497.421875 21026.992188 6808.320312 C 20295.507812 7075.46875 20090.507812 7717.890625 19552.8125 8211.210938 C 18574.609375 9108.710938 17095.390625 10037.304688 15688.59375 9823.945312 C 13932.8125 9557.65625 15218.007812 7092.578125 14904.804688 6159.804688 C 14480.898438 4897.421875 12909.882812 4708.554688 13616.71875 3131.015625 C 13862.382812 2582.734375 14423.203125 2189.375 14801.914062 1742.617188 C 15319.492188 1131.835938 15895.78125 272.539062 16037.890625 -524.101562 " transform="matrix(0.1, 0, 0, -0.1, 0, 2160)"/>
<path fill="none" stroke-width="30" stroke-linecap="round" stroke-linejoin="round" stroke="rgb(74.21875%, 74.21875%, 74.21875%)" stroke-opacity="1" stroke-miterlimit="10" d="M 16881.796875 -587.617188 C 16723.59375 411.445312 16523.90625 1732.03125 15690.195312 2423.945312 C 15169.882812 2855.664062 13874.804688 2789.804688 13725.507812 3590.546875 C 13566.992188 4440.820312 15085.585938 5162.34375 15429.6875 5900.507812 C 15791.796875 6677.460938 14697.382812 8629.140625 15233.203125 9045.859375 C 15503.085938 9255.78125 15891.71875 9219.140625 16199.296875 9125.664062 C 17201.796875 8821.054688 17964.609375 8035.3125 18529.101562 7176.953125 C 18768.59375 6812.734375 19035.703125 6410.742188 19412.695312 6171.132812 C 20202.890625 5668.867188 20981.992188 6206.171875 21820.117188 6104.648438 C 22158.085938 6063.710938 22407.8125 5831.132812 22540.3125 5529.609375 C 23251.796875 3910.390625 21276.601562 3224.804688 20796.015625 1932.96875 C 20520.117188 1191.328125 19797.890625 144.53125 19943.398438 -636.5625 C 19951.210938 -677.890625 20615.585938 -484.21875 20579.804688 -517.460938 C 19658.710938 -1373.046875 19013.710938 903.359375 19469.414062 1783.164062 C 20006.09375 2819.0625 21938.59375 3063.476562 21728.085938 4456.757812 C 21491.601562 6021.484375 19413.28125 4710.234375 18527.109375 5160.703125 C 17972.304688 5442.695312 17674.296875 6611.015625 17056.40625 6572.578125 C 16258.398438 6522.929688 17060.703125 5330.859375 16781.601562 4919.804688 C 16566.210938 4602.617188 15239.492188 4474.257812 15250.195312 4233.90625 C 15271.40625 3755.546875 16799.804688 2950.390625 17175.507812 2353.710938 C 17578.28125 1713.789062 17775.3125 936.679688 17751.015625 182.578125 C 17740.390625 -146.484375 17648.90625 -511.992188 17712.304688 -840.3125 " transform="matrix(0.1, 0, 0, -0.1, 0, 2160)"/>
<path fill="none" stroke-width="30" stroke-linecap="round" stroke-linejoin="round" stroke="rgb(74.21875%, 74.21875%, 74.21875%)" stroke-opacity="1" stroke-miterlimit="10" d="M 19157.382812 -622.617188 C 18230.703125 508.554688 18104.492188 1948.671875 19401.914062 2787.109375 C 19744.414062 3008.476562 21113.710938 3528.359375 21113.28125 4000.546875 C 21113.203125 4046.40625 21091.914062 4097.109375 21072.1875 4137.148438 C 20698.710938 4896.71875 19531.992188 4162.578125 18947.109375 4188.046875 C 18349.296875 4214.101562 17432.695312 5239.882812 16970.585938 4316.015625 C 16769.296875 3913.59375 17475.898438 3234.570312 17615.195312 2874.335938 C 18068.789062 1700.859375 18334.804688 303.59375 18164.21875 -941.601562 " transform="matrix(0.1, 0, 0, -0.1, 0, 2160)"/>
<path fill="none" stroke-width="30" stroke-linecap="round" stroke-linejoin="round" stroke="rgb(74.21875%, 74.21875%, 74.21875%)" stroke-opacity="1" stroke-miterlimit="10" d="M 10089.882812 -797.65625 C 9436.679688 984.765625 8933.164062 3276.757812 10064.492188 4994.84375 C 10475 5618.320312 11057.304688 6218.125 11304.882812 6932.304688 C 11592.5 7761.953125 11683.984375 9001.210938 10766.914062 9491.875 C 7879.84375 11036.484375 5793.75 6873.242188 4007.96875 5560.507812 C 3567.265625 5236.523438 3031.796875 4897.382812 2504.609375 4731.640625 C 2151.367188 4620.585938 1791.015625 4498.046875 1430.039062 4415.585938 C 772.1875 4265.351562 -471.171875 4262.382812 -318.203125 3296.015625 C -300.429688 3183.710938 -303.007812 2857.890625 -223.359375 2760.078125 C 33.515625 2444.492188 2020.976562 3357.304688 2458.90625 3548.242188 C 3735.234375 4104.765625 4719.0625 4953.789062 5584.765625 6021.601562 C 6236.09375 6825.039062 6764.0625 7534.882812 7667.578125 8083.046875 C 8080.585938 8333.59375 9576.835938 9002.851562 10023.710938 8691.171875 C 10270.3125 8519.140625 10443.085938 8219.296875 10521.992188 7934.765625 C 10971.914062 6313.671875 8851.171875 5305.507812 8233.554688 4082.890625 C 7326.210938 2286.757812 7767.539062 1606.757812 8634.023438 -40.742188 " transform="matrix(0.1, 0, 0, -0.1, 0, 2160)"/>
<path fill="none" stroke-width="30" stroke-linecap="round" stroke-linejoin="round" stroke="rgb(74.21875%, 74.21875%, 74.21875%)" stroke-opacity="1" stroke-miterlimit="10" d="M 8199.414062 -587.617188 C 7844.0625 182.695312 7043.398438 2612.382812 7113.789062 3438.515625 C 7142.65625 3777.460938 7271.484375 4144.765625 7479.648438 4417.070312 C 8086.445312 5210.703125 9174.570312 5470.234375 9690.351562 6339.335938 C 10049.414062 6944.21875 10100.117188 8004.21875 9327.96875 8262.304688 C 8517.148438 8533.28125 7560.664062 7603.398438 7042.1875 7114.492188 C 5539.882812 5697.890625 4366.40625 3925.859375 2626.367188 2770 C 1999.570312 2353.632812 1229.21875 2126.953125 513.4375 1917.5 C 276.914062 1848.28125 -156.445312 1907.109375 -346.835938 1750.976562 C -721.171875 1444.0625 -761.796875 -71.5625 -396.132812 -431.796875 C 237.304688 -1055.898438 1683.945312 352.617188 2120.78125 765.820312 C 3412.96875 1988.007812 4416.71875 3508.867188 5511.210938 4904.257812 C 5913.125 5416.640625 6251.328125 5930.507812 6784.648438 6328.671875 C 7098.398438 6562.96875 8526.601562 7441.875 8911.445312 7167.265625 C 9618.046875 6663.046875 7154.375 5056.054688 6829.21875 4798.164062 C 6584.21875 4603.828125 6371.875 4383.085938 6213.789062 4111.523438 C 5289.296875 2523.28125 6557.460938 564.179688 7457.34375 -636.5625 " transform="matrix(0.1, 0, 0, -0.1, 0, 2160)"/>
<path fill="none" stroke-width="30" stroke-linecap="round" stroke-linejoin="round" stroke="rgb(74.21875%, 74.21875%, 74.21875%)" stroke-opacity="1" stroke-miterlimit="10" d="M 2002.695312 -307.539062 C 2472.070312 204.101562 3018.007812 639.023438 3472.734375 1165.15625 C 3912.1875 1673.554688 4229.335938 2248.789062 4625.664062 2784.179688 C 4705.625 2892.1875 4851.914062 3086.953125 4995.273438 3110.976562 C 5482.890625 3192.65625 5419.570312 1377.070312 5454.765625 1125.039062 C 5522.226562 641.757812 6423.828125 29.21875 6166.5625 -362.5 C 6067.851562 -512.773438 5815.078125 -606.757812 5655.351562 -659.53125 C 4686.796875 -979.414062 5096.054688 545.703125 4348.28125 526.445312 C 3910.46875 515.195312 3626.171875 -386.523438 3454.726562 -654.023438 " transform="matrix(0.1, 0, 0, -0.1, 0, 2160)"/>
<path fill="none" stroke-width="30" stroke-linecap="round" stroke-linejoin="round" stroke="rgb(74.21875%, 74.21875%, 74.21875%)" stroke-opacity="1" stroke-miterlimit="10" d="M -693.046875 4873.90625 C 3992.421875 4547.421875 4326.5625 8035.46875 7557.265625 9877.226562 C 8436.679688 10378.59375 9509.296875 10588.007812 10487.5 10297.109375 C 10776.601562 10211.09375 11948.28125 9521.09375 12192.304688 9775.390625 C 13066.015625 10685.703125 10438.59375 12339.804688 9915.390625 12694.609375 C 9435.859375 13019.882812 9011.367188 13390.703125 8495.625 13665.507812 C 6391.875 14786.601562 4046.015625 14187.109375 1790.976562 14534.21875 C 1265.46875 14615.117188 785.625 14738.515625 293.75 14944.609375 C 132.539062 15012.1875 -94.6875 15193.789062 -264.84375 15227.1875 C -305.898438 15235.3125 -722.070312 14431.71875 -204.726562 13972.8125 C 426.953125 13412.5 1484.453125 13214.6875 2269.296875 12988.90625 C 3919.609375 12514.101562 5674.570312 12760.898438 7315.078125 12196.210938 C 7462.109375 12145.585938 8700.46875 11825.78125 8718.671875 11615.898438 C 8766.132812 11069.21875 6413.75 10608.789062 6053.945312 10496.09375 C 5602.34375 10354.609375 5148.125 10168.007812 4745.859375 9917.617188 C 4193.828125 9574.023438 3910.390625 9029.335938 3507.734375 8541.328125 C 2573.828125 7409.414062 1322.1875 6487.34375 -202.96875 6512.421875 " transform="matrix(0.1, 0, 0, -0.1, 0, 2160)"/>
<path fill="none" stroke-width="30" stroke-linecap="round" stroke-linejoin="round" stroke="rgb(74.21875%, 74.21875%, 74.21875%)" stroke-opacity="1" stroke-miterlimit="10" d="M -377.929688 7149.53125 C 1784.453125 7196.328125 2050.351562 7798.203125 3343.125 9383.398438 C 3621.09375 9724.179688 3876.601562 10060.898438 4247.5 10307.109375 C 5065.15625 10849.804688 6069.335938 10997.890625 6969.023438 11370 C 7043.242188 11400.703125 7298.359375 11486.484375 7228.90625 11588.398438 C 6650.078125 12436.914062 3731.328125 11844.414062 2807.890625 11881.210938 C 1717.851562 11924.492188 855.9375 12210.3125 -158.984375 12570.3125 C -178.710938 12577.304688 -259.84375 12613.59375 -280.351562 12602.382812 C -363.632812 12556.796875 -426.875 12473.28125 -463.398438 12388.203125 C -1307.265625 10422.1875 3013.515625 11450 3262.773438 10874.101562 C 3294.453125 10800.898438 3286.640625 10725 3275.9375 10647.8125 C 3171.757812 9896.835938 1945.46875 9795.9375 1405.429688 9527.773438 C 1119.453125 9385.78125 942.226562 9140 722.8125 8918.515625 C 583.554688 8778.007812 -274.882812 8174.335938 -468.828125 8384.21875 " transform="matrix(0.1, 0, 0, -0.1, 0, 2160)"/>
<path fill="none" stroke-width="30" stroke-linecap="round" stroke-linejoin="round" stroke="rgb(74.21875%, 74.21875%, 74.21875%)" stroke-opacity="1" stroke-miterlimit="10" d="M -848.828125 8264.21875 C -1116.523438 8553.90625 -624.414062 8932.617188 -351.289062 9163.789062 C 404.882812 9803.789062 2395.15625 10232.8125 977.421875 10524.414062 C 763.554688 10568.398438 538.828125 10547.1875 322.226562 10546.601562 C -9.296875 10545.78125 -273.867188 10640.3125 -593.085938 10690.390625 " transform="matrix(0.1, 0, 0, -0.1, 0, 2160)"/>
</svg>
